Patient4_TMGait_0pt6_02_right_15_EMG.mot
version=1
nRows=13
nColumns=33
inDegrees=no
endheader
time	1LAddLong	2LGlutMax	3LGlutMed	4LIliopsoas	5LSemiMemb	6LBicFemLong	7LRecFem	8LVastMed	9LVastLat	10LGasMed	11LTibAnt	12lTibPost	13LPeroneusLong	14LSol	15LExtDigLong	16LFlexDigLong	17RAddLong	18RGlutMax	19RGlutMed	20RIliopsoas	21RSemiMemb	22RBicFemLong	23RRecFem	24RVastMed	25RVastLat	26RGasMed	27RTibAnt	28RTibPost	29RPeroneusLong	30RSol	31RExtDigLong	32RFlexDigLong
17.83	-0.005493	-0.39276	0.002441	-0.0177	-0.005341	-0.17899	0.042877	-0.006561	0.063324	0.04303	0.021667	0.002899	0.053711	0.075531	-0.010071	-0.003204	0.071869	-0.087433	0.095062	-0.14481	-0.000153	-0.011902	-0.3244	-0.14587	0.01236	-0.000916	-0.15305	-0.010681	0.21622	-0.10742	-0.003204	-0.017548
17.831	0.002136	-0.33676	0.004272	-0.019531	0.001068	-0.21545	0.03418	-0.004272	0.059967	0.098724	0.033417	0.003204	0.063629	0.031891	-0.015564	0.007324	0.071259	-0.076141	0.035553	-0.13611	-0.019531	-0.018005	-0.57022	-0.12054	-0.046692	0.010529	-0.22705	-0.010071	0.10284	-0.18707	-0.002136	-0.00824
17.832	-0.000458	-0.33707	0.0177	-0.021515	-0.010071	-0.086212	0.039978	0.001831	0.044556	0.11383	0.036316	0.001221	0.000916	-0.003662	-0.03418	-0.000305	0.037994	-0.09201	0.019836	-0.10925	-0.022888	-0.02243	-0.39764	-0.10819	-0.032043	0.004272	-0.18341	-0.010223	-0.35324	-0.21088	-0.006104	-0.004425
17.833	-0.019073	-0.32516	0.023193	0.005035	-0.050659	0.15839	0.081635	0.012512	0.016632	0.065155	0.032654	0.000153	-0.28961	-0.096588	-0.006409	0.004883	0.059662	-0.12344	-0.048523	-0.068665	-0.03418	-0.026703	-0.17441	-0.063629	0.000763	-0.010986	-0.34225	-0.012207	-0.082245	-0.083618	-0.001068	-0.001373
17.834	-0.014801	-0.36957	0.058746	0.002899	-0.12344	0.25986	0.12589	-0.002899	-0.022583	0.042419	0.028381	0.008392	-0.30365	-0.27008	-0.005188	0.005646	0.032806	-0.13428	-0.14908	-0.028992	-0.03479	-0.00351	0.029449	-0.050507	-0.009918	-0.015106	-0.31891	-0.013123	-0.15121	0.009308	-0.00061	-0.003052
17.835	0.014954	-0.31006	0.048981	0.000458	-0.039673	0.2388	0.14191	-0.005188	0.026093	0.12817	0.028381	-0.000458	-0.12543	-0.16876	-0.005646	0.000305	0.11841	-0.16312	-0.22781	0.020599	-0.040894	-0.01709	0.074158	-0.036316	-0.021973	-0.012665	-0.20432	-0.010223	-0.26154	-0.036926	-0.001831	-0.005798
17.836	0.042419	-0.28488	0.006561	0.007935	0.12634	0.22614	0.1088	-0.001678	0.050049	0.21622	0.025635	0.001373	-0.071411	0.12573	0.050049	-0.014038	0.15167	-0.13367	-0.2948	0.003204	-0.042725	-0.005188	0.059662	0.029602	-0.011597	-0.013885	0.059967	-0.00824	-0.3479	-0.075531	-0.002594	-0.006256
17.837	0.042725	-0.26672	-0.007019	0.007935	0.1976	-0.2478	0.1088	0.002289	0.036774	0.17349	0.024109	-0.000305	-0.10956	-0.026245	-0.010223	0.005341	0.17761	-0.11795	-0.14069	-0.03952	-0.03891	-0.010376	0.13534	0.10941	-0.014801	-0.009766	0.5484	-0.009308	-0.025787	-0.059509	-0.005341	0.004578
17.838	0.019836	-0.23346	-0.044556	-0.006409	0.13489	-0.085449	0.10162	-0.002289	0.043488	0.076447	0.053711	0.001678	-0.65674	-0.043793	0.019226	-0.004578	0.15182	-0.11887	0.10284	-0.11307	-0.040283	-0.010681	0.11414	0.064392	-0.016632	0.006409	0.78232	-0.00824	0.45959	-0.052948	0.000305	-0.002594
17.839	0.017548	-0.19669	0.10727	0.025177	0.050964	-0.027466	0.076904	0.001984	0.033875	-0.22369	0.063324	0.005341	-0.44281	0.093384	-0.004425	0.001068	0.1152	-0.12116	0.5014	-0.015411	-0.03418	0.001678	0.082855	0.054169	0.006714	0.010834	0.60913	-0.003357	0.45197	-0.12482	-0.001068	0.003357
17.84	0.011749	-0.20874	0.07431	0.019226	0.021515	0.013123	0.052185	0.014801	0.041656	-0.49927	0.010223	0.00351	0.038605	0.074768	-0.022278	-0.00473	0.12146	-0.16541	0.30701	0.039673	-0.040588	-0.013428	-0.033112	0.05249	0.000153	0.010071	0.056763	-0.007324	0.15457	-0.17929	-0.001984	-0.001526
17.841	0.0177	-0.13718	0.018311	-0.005646	0.015259	0.12665	0.031433	-0.000153	0.10117	-0.43686	-0.005951	0.008087	0.37247	0.14282	0.011292	-0.009155	0.08667	-0.16586	0.159	0.12634	-0.025177	0.009308	-0.051727	-0.005341	-0.000458	0.003815	-0.24307	-0.005341	-0.16892	-0.005951	0	0.003052
17.842	0.011292	-0.1413	0.075836	-0.007782	0.016327	0.088654	0.0354	0.002594	0.092773	-0.29205	-0.010071	-0.000916	0.5835	0.17609	0.013733	-0.003967	0.0177	-0.097656	0.16922	0.17624	-0.022583	-0.009766	-0.039673	-0.00351	-0.00412	0	-0.64362	-0.008545	-0.012665	0.14542	0.004883	0.007782
